<svg width="64" height="64" viewBox="0 0 64 64" xmlns="http://www.w3.org/2000/svg">
  <defs>
    <linearGradient id="pluginGradient" x1="0%" y1="0%" x2="100%" y2="100%">
      <stop offset="0%" style="stop-color:#4F46E5;stop-opacity:1" />
      <stop offset="100%" style="stop-color:#7C3AED;stop-opacity:1" />
    </linearGradient>
  </defs>
  
  <!-- 背景圆形 -->
  <circle cx="32" cy="32" r="28" fill="url(#pluginGradient)" stroke="#E5E7EB" stroke-width="2"/>
  
  <!-- 插件图标 - 拼图块形状 -->
  <g transform="translate(16, 16)">
    <!-- 主体部分 -->
    <path d="M8 4 L24 4 L24 12 L28 12 L28 20 L24 20 L24 28 L8 28 L8 20 L4 20 L4 12 L8 12 Z" 
          fill="white" stroke="none"/>
    
    <!-- 凸起部分 -->
    <circle cx="26" cy="8" r="2" fill="white"/>
    <circle cx="6" cy="16" r="2" fill="white"/>
    
    <!-- 内部装饰线条 -->
    <line x1="12" y1="8" x2="20" y2="8" stroke="#4F46E5" stroke-width="1.5" stroke-linecap="round"/>
    <line x1="12" y1="12" x2="18" y2="12" stroke="#4F46E5" stroke-width="1.5" stroke-linecap="round"/>
    <line x1="12" y1="16" x2="20" y2="16" stroke="#4F46E5" stroke-width="1.5" stroke-linecap="round"/>
    <line x1="12" y1="20" x2="16" y2="20" stroke="#4F46E5" stroke-width="1.5" stroke-linecap="round"/>
  </g>
  
  <!-- 装饰性光点 -->
  <circle cx="20" cy="20" r="1.5" fill="white" opacity="0.8"/>
  <circle cx="44" cy="44" r="1" fill="white" opacity="0.6"/>
</svg>